<svg width="512" height="512" viewBox="0 0 512 512" fill="none" xmlns="http://www.w3.org/2000/svg">
<path d="M218.315 203.221C201.333 207.243 183.723 204.672 165.525 195.68C133.429 214.795 106.432 237.963 82.88 263.883L165.515 301.269L218.315 203.221Z" fill="url(#paint0_linear_3_2)"/>
<path d="M308.821 293.717C304.8 310.699 307.371 328.309 316.363 346.507C297.248 378.603 274.08 405.6 248.16 429.152L210.773 346.517L308.821 293.717Z" fill="url(#paint1_linear_3_2)"/>
<path d="M438.037 83.008C437.504 78.272 433.76 74.528 429.024 73.9946C377.312 68.1386 307.637 71.5413 264.533 128.747L143.488 294.325L180.597 331.435L217.707 368.544L383.285 247.509C440.491 204.405 443.893 134.731 438.037 83.008Z" fill="url(#paint2_radial_3_2)"/>
<path d="M203.232 384.235L127.808 308.811L150.432 301.269L210.773 361.6L203.232 384.235Z" fill="url(#paint3_linear_3_2)"/>
<path d="M184.096 365.045L165.547 346.496L146.997 327.947C146.997 327.947 105.483 327.829 85.8667 363.072C96.0747 363.595 94.0373 371.211 83.584 380.171C77.472 385.419 73.6853 395.136 73.664 403.808C83.8187 400.853 81.2693 420.672 74.6773 437.355C91.36 430.763 111.189 428.213 108.224 438.368C116.907 438.336 126.581 434.528 131.829 428.416C140.789 417.973 148.437 415.957 148.96 426.176C184.213 406.56 184.096 365.045 184.096 365.045Z" fill="url(#paint4_linear_3_2)"/>
<path d="M181.248 362.197L165.547 346.496L149.845 330.795C139.861 331.733 112.021 341.131 94.3253 362.485C99.84 365.856 98.2187 374.421 94.0267 379.509C90.6453 383.605 80.9173 389.803 77.1307 401.739C85.3227 400.128 88.416 410.88 81.0347 431.019C101.173 423.637 111.925 426.731 110.315 434.923C122.251 431.136 128.448 421.408 132.544 418.027C137.632 413.824 146.208 412.213 149.568 417.728C170.923 400.021 180.309 372.181 181.248 362.197Z" fill="url(#paint5_radial_3_2)"/>
<path d="M153.6 358.091C135.339 382.325 111.253 380.917 90.0374 421.803C115.712 391.936 143.232 393.376 153.6 358.091Z" fill="url(#paint6_linear_3_2)"/>
<path d="M115.947 426.112C131.541 390.912 150.645 401.003 169.376 375.179C157.493 411.232 136.16 408.053 115.947 426.112Z" fill="url(#paint7_linear_3_2)"/>
<path d="M117.301 380.651C126.155 357.877 139.083 362.976 150.453 346.581C144.117 370.059 130.016 369.472 117.301 380.651Z" fill="url(#paint8_linear_3_2)"/>
<path d="M88.32 429.387C99.3813 411.04 108.96 417.707 120.971 405.355C111.808 424.757 100.512 421.813 88.32 429.387Z" fill="url(#paint9_linear_3_2)"/>
<path d="M81.952 410.048C100.341 405.835 96.5867 394.187 109.952 386.933C91.0507 388.917 91.1787 400.917 81.952 410.048Z" fill="url(#paint10_linear_3_2)"/>
<path d="M143.819 390.272C164.405 379.904 158.261 368.715 172.576 356.725C151.04 364.896 153.056 377.611 143.819 390.272Z" fill="url(#paint11_linear_3_2)"/>
<path d="M86.7626 392.821C121.696 377.397 116.757 359.147 142.891 340.768C107.392 352.619 105.525 373.077 86.7626 392.821Z" fill="url(#paint12_linear_3_2)"/>
<path d="M165.717 352.843L158.165 345.301L233.6 269.877L241.141 277.419L165.717 352.843Z" fill="url(#paint13_linear_3_2)"/>
<path d="M251.287 252.174L258.83 259.717L241.135 277.411L233.593 269.868L251.287 252.174Z" fill="#288BD7"/>
<path d="M432.235 175.776C441.579 144.299 441.205 111.029 438.037 83.008C437.504 78.272 433.76 74.528 429.024 73.9947C401.013 70.8267 367.733 70.4533 336.256 79.7973L432.235 175.776Z" fill="url(#paint14_linear_3_2)"/>
<path d="M424.928 195.413L316.619 87.104C315.413 87.648 314.197 88.1387 313.013 88.7253L423.317 199.029C423.893 197.835 424.384 196.619 424.928 195.413Z" fill="url(#paint15_linear_3_2)"/>
<path d="M426.443 192.043L319.989 85.5893C318.773 86.1013 317.579 86.656 316.384 87.2107L424.821 195.648C425.365 194.453 425.931 193.259 426.443 192.043Z" fill="url(#paint16_linear_3_2)"/>
<path d="M317.707 295.445L216.587 194.336L214.379 197.355L314.688 297.653L317.707 295.445Z" fill="url(#paint17_linear_3_2)"/>
<path d="M320.523 293.387L218.645 191.509L216.437 194.528L317.504 295.595L320.523 293.387Z" fill="url(#paint18_linear_3_2)"/>
<path d="M320.736 270.507C357.078 270.507 386.539 241.046 386.539 204.704C386.539 168.362 357.078 138.901 320.736 138.901C284.394 138.901 254.933 168.362 254.933 204.704C254.933 241.046 284.394 270.507 320.736 270.507Z" fill="url(#paint19_radial_3_2)"/>
<path d="M316.363 253.856C348.498 253.856 374.549 227.805 374.549 195.669C374.549 163.534 348.498 137.483 316.363 137.483C284.227 137.483 258.176 163.534 258.176 195.669C258.176 227.805 284.227 253.856 316.363 253.856Z" fill="url(#paint20_linear_3_2)"/>
<path d="M316.363 243.211C342.619 243.211 363.904 221.926 363.904 195.669C363.904 169.413 342.619 148.128 316.363 148.128C290.106 148.128 268.821 169.413 268.821 195.669C268.821 221.926 290.106 243.211 316.363 243.211Z" fill="url(#paint21_linear_3_2)"/>
<path d="M316.363 238.336C339.927 238.336 359.029 219.233 359.029 195.669C359.029 172.105 339.927 153.003 316.363 153.003C292.799 153.003 273.696 172.105 273.696 195.669C273.696 219.233 292.799 238.336 316.363 238.336Z" fill="url(#paint22_linear_3_2)"/>
<path d="M324.565 158.784C327.093 161.312 309.611 164.512 297.301 176.821C284.992 189.131 282.517 205.888 279.989 203.36C277.461 200.832 273.131 183.072 288.48 167.723C302.155 154.048 322.048 156.256 324.565 158.784Z" fill="url(#paint23_radial_3_2)"/>
<path d="M358.613 102.155C376.277 94.208 396.96 87.712 421.28 84.2347C421.28 84.2347 385.824 74.9973 343.659 87.2107L358.613 102.155Z" fill="url(#paint24_linear_3_2)"/>
<defs>
<linearGradient id="paint0_linear_3_2" x1="152.443" y1="240.045" x2="179.179" y2="334.153" gradientUnits="userSpaceOnUse">
<stop stop-color="#0B71D9"/>
<stop offset="0.628" stop-color="#264774"/>
</linearGradient>
<linearGradient id="paint1_linear_3_2" x1="305.199" y1="426.857" x2="266.914" y2="336.83" gradientUnits="userSpaceOnUse">
<stop stop-color="#0B71D9"/>
<stop offset="1" stop-color="#264774"/>
</linearGradient>
<radialGradient id="paint2_radial_3_2" cx="0" cy="0" r="1" gradientUnits="userSpaceOnUse" gradientTransform="translate(325.788 259.97) rotate(47.1274) scale(170.589 611.092)">
<stop offset="0.17" stop-color="#999999"/>
<stop offset="0.481" stop-color="#EEEEEE"/>
<stop offset="0.707" stop-color="#ECECEC"/>
<stop offset="0.788" stop-color="#E5E5E5"/>
<stop offset="0.846" stop-color="#DADADA"/>
<stop offset="0.893" stop-color="#C9C9C9"/>
<stop offset="0.933" stop-color="#B3B3B3"/>
<stop offset="0.968" stop-color="#989898"/>
<stop offset="0.999" stop-color="#797979"/>
<stop offset="1" stop-color="#787878"/>
</radialGradient>
<linearGradient id="paint3_linear_3_2" x1="147.282" y1="312.845" x2="199.86" y2="366.284" gradientUnits="userSpaceOnUse">
<stop stop-color="#0B71D9"/>
<stop offset="1" stop-color="#264774"/>
</linearGradient>
<linearGradient id="paint4_linear_3_2" x1="155.081" y1="357.3" x2="81.6382" y2="429.714" gradientUnits="userSpaceOnUse">
<stop stop-color="#FF7900"/>
<stop offset="1" stop-color="#E51E25"/>
</linearGradient>
<radialGradient id="paint5_radial_3_2" cx="0" cy="0" r="1" gradientUnits="userSpaceOnUse" gradientTransform="translate(165.944 347.085) rotate(45.001) scale(97.024 117.127)">
<stop stop-color="white"/>
<stop offset="0.254" stop-color="#FFDA4E"/>
<stop offset="0.699" stop-color="#FF7900"/>
<stop offset="0.975" stop-color="#E51F25"/>
</radialGradient>
<linearGradient id="paint6_linear_3_2" x1="206.826" y1="321.46" x2="74.7766" y2="428.84" gradientUnits="userSpaceOnUse">
<stop stop-color="white"/>
<stop offset="0.404" stop-color="#FFDA4E"/>
<stop offset="0.699" stop-color="#FF7900"/>
<stop offset="0.975" stop-color="#E51F25"/>
</linearGradient>
<linearGradient id="paint7_linear_3_2" x1="197.743" y1="352.534" x2="91.8991" y2="444.505" gradientUnits="userSpaceOnUse">
<stop stop-color="white"/>
<stop offset="0.254" stop-color="#FFDA4E"/>
<stop offset="0.594" stop-color="#FF7900"/>
<stop offset="0.975" stop-color="#E51F25"/>
</linearGradient>
<linearGradient id="paint8_linear_3_2" x1="175.561" y1="327.721" x2="86.0919" y2="407.395" gradientUnits="userSpaceOnUse">
<stop stop-color="white"/>
<stop offset="0.28" stop-color="#FFDA4E"/>
<stop offset="0.834" stop-color="#FF7900"/>
<stop offset="0.943" stop-color="#E51F25"/>
</linearGradient>
<linearGradient id="paint9_linear_3_2" x1="171.83" y1="378.896" x2="83.9176" y2="430.333" gradientUnits="userSpaceOnUse">
<stop stop-color="white"/>
<stop offset="0.28" stop-color="#FFDA4E"/>
<stop offset="0.536" stop-color="#FF7900"/>
<stop offset="0.943" stop-color="#E51F25"/>
</linearGradient>
<linearGradient id="paint10_linear_3_2" x1="141.492" y1="354.52" x2="73.502" y2="415.964" gradientUnits="userSpaceOnUse">
<stop stop-color="white"/>
<stop offset="0.28" stop-color="#FFDA4E"/>
<stop offset="0.491" stop-color="#FF7900"/>
<stop offset="0.943" stop-color="#E51F25"/>
</linearGradient>
<linearGradient id="paint11_linear_3_2" x1="187.042" y1="331.447" x2="122.582" y2="422.043" gradientUnits="userSpaceOnUse">
<stop stop-color="white"/>
<stop offset="0.37" stop-color="#FFDA4E"/>
<stop offset="0.834" stop-color="#FF7900"/>
<stop offset="0.943" stop-color="#E51F25"/>
</linearGradient>
<linearGradient id="paint12_linear_3_2" x1="166.67" y1="311.636" x2="65.2574" y2="422.918" gradientUnits="userSpaceOnUse">
<stop stop-color="white"/>
<stop offset="0.254" stop-color="#FFDA4E"/>
<stop offset="0.602" stop-color="#FF7900"/>
<stop offset="0.975" stop-color="#E51F25"/>
</linearGradient>
<linearGradient id="paint13_linear_3_2" x1="195.879" y1="307.589" x2="203.421" y2="315.131" gradientUnits="userSpaceOnUse">
<stop stop-color="#264774"/>
<stop offset="1" stop-color="#264774"/>
</linearGradient>
<linearGradient id="paint14_linear_3_2" x1="381.096" y1="73.7752" x2="438.229" y2="130.91" gradientUnits="userSpaceOnUse">
<stop stop-color="#F68381"/>
<stop offset="0.547" stop-color="#E62228"/>
<stop offset="0.903" stop-color="#8E2809"/>
</linearGradient>
<linearGradient id="paint15_linear_3_2" x1="314.322" y1="87.4183" x2="424.621" y2="197.721" gradientUnits="userSpaceOnUse">
<stop stop-color="white" stop-opacity="0.8"/>
<stop offset="1" stop-color="white" stop-opacity="0"/>
</linearGradient>
<linearGradient id="paint16_linear_3_2" x1="317.686" y1="85.9099" x2="426.122" y2="194.35" gradientUnits="userSpaceOnUse">
<stop offset="0.293" stop-color="#CBCBCB"/>
<stop offset="1" stop-color="#666666"/>
</linearGradient>
<linearGradient id="paint17_linear_3_2" x1="215.272" y1="195.636" x2="316.392" y2="296.76" gradientUnits="userSpaceOnUse">
<stop stop-color="white" stop-opacity="0.8"/>
<stop offset="1" stop-color="white" stop-opacity="0"/>
</linearGradient>
<linearGradient id="paint18_linear_3_2" x1="217.339" y1="192.815" x2="319.213" y2="294.693" gradientUnits="userSpaceOnUse">
<stop offset="0.293" stop-color="#CBCBCB"/>
<stop offset="1" stop-color="#666666"/>
</linearGradient>
<radialGradient id="paint19_radial_3_2" cx="0" cy="0" r="1" gradientUnits="userSpaceOnUse" gradientTransform="translate(321.108 204.327) rotate(45.001) scale(62.7947)">
<stop stop-opacity="0.8"/>
<stop offset="0.384" stop-color="#020202" stop-opacity="0.491"/>
<stop offset="0.53" stop-color="#090909" stop-opacity="0.373"/>
<stop offset="0.636" stop-color="#151515" stop-opacity="0.288"/>
<stop offset="0.722" stop-color="#262626" stop-opacity="0.218"/>
<stop offset="0.797" stop-color="#3C3C3C" stop-opacity="0.158"/>
<stop offset="0.863" stop-color="#585858" stop-opacity="0.105"/>
<stop offset="0.923" stop-color="#797979" stop-opacity="0.057"/>
<stop offset="0.976" stop-color="#9E9E9E" stop-opacity="0.014"/>
<stop offset="0.993" stop-color="#ABABAB" stop-opacity="0"/>
</radialGradient>
<linearGradient id="paint20_linear_3_2" x1="280.734" y1="160.044" x2="359.77" y2="239.083" gradientUnits="userSpaceOnUse">
<stop stop-color="#E7E7E7"/>
<stop offset="1" stop-color="#999999"/>
</linearGradient>
<linearGradient id="paint21_linear_3_2" x1="351.7" y1="230.319" x2="286.489" y2="166.372" gradientUnits="userSpaceOnUse">
<stop stop-color="#C8C8C8"/>
<stop offset="1" stop-color="#AAAAAA"/>
</linearGradient>
<linearGradient id="paint22_linear_3_2" x1="286.195" y1="165.505" x2="346.533" y2="225.846" gradientUnits="userSpaceOnUse">
<stop stop-color="#78D9F4"/>
<stop offset="0.846" stop-color="#0B71D9"/>
</linearGradient>
<radialGradient id="paint23_radial_3_2" cx="0" cy="0" r="1" gradientUnits="userSpaceOnUse" gradientTransform="translate(289.305 172.335) rotate(-44.998) scale(67.4462 12.8716)">
<stop stop-color="white" stop-opacity="0.5"/>
<stop offset="0.141" stop-color="white" stop-opacity="0.429"/>
<stop offset="0.999" stop-color="white" stop-opacity="0"/>
</radialGradient>
<linearGradient id="paint24_linear_3_2" x1="272.309" y1="6.42133" x2="480.469" y2="159.968" gradientUnits="userSpaceOnUse">
<stop stop-color="white" stop-opacity="0.8"/>
<stop offset="0.794" stop-color="white" stop-opacity="0"/>
</linearGradient>
</defs>
</svg>
